<?xml version="1.0" standalone="no"?>
<!DOCTYPE svg PUBLIC "-//W3C//DTD SVG 20010904//EN"
 "http://www.w3.org/TR/2001/REC-SVG-20010904/DTD/svg10.dtd">
<svg version="1.0" xmlns="http://www.w3.org/2000/svg"
 width="911.000000pt" height="1024.000000pt" viewBox="0 0 911.000000 1024.000000"
 preserveAspectRatio="xMidYMid meet">
<metadata>
Created by potrace 1.16, written by Peter Selinger 2001-2019
</metadata>
<g transform="translate(0.000000,1024.000000) scale(0.100000,-0.100000)"
fill="#000000" stroke="none">
<path d="M5366 7681 c3 -236 2 -391 -4 -395 -5 -3 -49 8 -98 25 -310 105 -721
138 -1044 83 -188 -31 -290 -58 -445 -116 -142 -53 -387 -175 -407 -202 -8
-12 -99 73 -267 246 l-124 128 -451 0 -451 0 393 -393 c215 -215 392 -397 392
-404 0 -6 -12 -21 -26 -32 -14 -11 -23 -25 -19 -31 4 -6 2 -9 -4 -8 -26 7
-219 -280 -310 -458 -96 -191 -176 -468 -217 -754 -17 -122 -17 -456 1 -525
12 -48 13 -49 14 -15 2 35 3 35 14 10 6 -14 15 -28 20 -31 11 -8 12 -69 2 -93
-6 -15 -5 -17 5 -11 10 6 12 4 7 -9 -4 -10 -7 -22 -7 -27 0 -5 -4 -9 -10 -9
-5 0 -10 11 -10 24 0 14 -4 27 -8 30 -10 6 -1 -65 28 -202 21 -103 47 -175 61
-167 7 5 35 -23 33 -34 -2 -16 9 -40 17 -35 5 3 9 -4 9 -14 0 -11 9 -22 20
-25 14 -4 20 -14 21 -34 0 -22 2 -24 8 -9 7 18 8 18 26 0 13 -13 20 -15 23 -6
8 26 23 11 17 -17 -5 -23 -2 -32 13 -40 20 -10 21 -34 9 -168 -3 -31 -14 -38
-22 -13 -5 14 -2 26 6 32 11 8 10 9 -3 5 -12 -4 -25 9 -49 50 -17 31 -32 62
-34 67 -1 6 -14 36 -28 66 -15 30 -27 62 -27 70 -1 19 -29 70 -30 53 -1 -38
179 -411 192 -398 2 3 5 -1 5 -8 0 -26 149 -240 164 -235 9 3 176 168 404 398
112 114 137 143 125 151 -12 8 -11 9 5 5 16 -5 71 45 268 244 161 161 246 253
241 261 -4 7 -3 10 2 6 5 -3 35 18 67 47 43 40 56 58 51 72 -4 14 -3 15 4 6 7
-10 36 13 121 98 61 62 108 117 104 123 -3 6 -1 7 5 3 6 -4 87 69 192 175 135
136 178 184 168 191 -9 7 -8 8 5 4 25 -8 153 123 134 137 -8 6 -7 7 5 3 12 -4
140 118 475 455 252 253 457 465 455 470 -1 6 1 8 6 5 5 -3 73 60 152 139
l143 145 371 0 371 -1 -636 641 c-350 352 -639 640 -642 640 -4 0 -4 -175 -1
-389z m-852 -790 c7 -10 61 -23 101 -24 30 0 30 0 3 -4 -16 -2 -28 -7 -28 -9
0 -15 34 -36 65 -41 64 -10 36 -20 -67 -22 -57 -1 -145 -6 -197 -12 -106 -10
-131 -6 -131 22 0 15 5 18 25 15 14 -3 25 0 25 5 0 5 -5 9 -12 9 -25 0 9 19
70 40 35 11 71 18 80 16 10 -3 24 -1 32 4 19 12 27 12 34 1z m336 -139 c59
-11 95 -22 95 -29 0 -7 -379 -392 -843 -856 -463 -464 -839 -847 -835 -851 5
-4 3 -6 -2 -4 -6 1 -77 -66 -160 -149 -82 -84 -153 -149 -157 -145 -4 4 -17
63 -29 132 -18 104 -20 147 -15 255 11 236 43 393 123 608 24 64 41 122 37
129 -4 6 -3 8 3 5 13 -8 36 41 27 55 -4 6 -2 8 4 4 6 -4 31 25 59 70 26 42 65
96 86 121 21 25 36 52 33 59 -3 8 5 24 17 35 16 16 17 20 5 16 -9 -3 -19 0
-22 8 -3 10 0 12 11 8 11 -5 14 -3 8 6 -6 10 -3 11 12 3 15 -9 23 -7 36 9 9
10 22 19 29 19 8 -1 5 -7 -6 -15 -11 -8 -16 -15 -11 -15 4 0 -2 -9 -15 -20
l-23 -20 189 -190 189 -190 225 225 224 225 -164 165 -164 164 69 31 c37 17
93 39 124 49 31 11 72 26 91 34 32 14 176 50 240 60 73 12 421 4 510 -11z"/>
<path d="M6205 6418 c-65 -68 -767 -772 -1559 -1565 l-1439 -1443 -369 -2
-370 -3 646 -650 646 -650 0 396 c0 218 3 398 6 401 3 4 45 -7 92 -23 298
-101 608 -143 897 -119 908 73 1664 665 1975 1546 30 86 66 235 96 404 26 139
26 543 0 695 -47 281 -113 489 -233 729 -67 133 -173 304 -228 363 l-40 44
-120 -123z m-24 -1065 c9 -54 14 -170 14 -298 0 -181 -4 -225 -24 -320 -28
-135 -105 -347 -174 -477 -51 -97 -164 -265 -190 -282 -9 -6 -66 45 -206 187
l-193 195 -212 -215 c-116 -118 -212 -219 -214 -224 -2 -5 65 -81 150 -170 84
-88 155 -165 156 -170 5 -14 -150 -84 -253 -113 -236 -67 -493 -84 -700 -46
-129 24 -145 28 -145 41 0 11 1959 1979 1970 1979 5 0 14 -39 21 -87z"/>
<path d="M6420 3342 c0 -8 -305 -295 -402 -379 l-46 -40 87 -87 86 -86 438 0
c240 0 437 2 437 4 0 9 -583 596 -591 596 -5 0 -9 -4 -9 -8z"/>
</g>
</svg>
